<svg xmlns="http://www.w3.org/2000/svg" viewBox="0 0 206.82 206.82"><defs><style>.cls-1{fill:#1e1e1e;}.cls-2{fill:#dadada;}</style></defs><title>Knob</title><g id="Layer_2" data-name="Layer 2"><g id="Layer_1-2" data-name="Layer 1"><path class="cls-1" d="M206.82,103.41c0,6.85-7.06,11.91-8.33,18.39-1.16,5.89,3.58,13.25,1.46,18.73-2.36,6.14-11.66,9.06-15.1,14.57s-1.1,13.75-5.56,18.56c-4.3,4.65-12.94.71-18,4.51s-6.86,15.46-12.74,18.32c-5.59,2.71-16.57-3.75-22.66-2.07-8.77,2.42-12.91,12.4-22.45,12.4-9.1,0-14.76-8.61-23.17-10.82-7.33-1.93-17.5,2.8-24.1-.59-6-3.08-6.06-13.1-11.3-17.24-5-4-15.2-2-19.39-6.82C21.51,166.83,24.1,158.16,21,153S9,146.2,6.85,140.5C4.75,135,8.5,129,7.35,123.11,6.07,116.62,0,110.27,0,103.41,0,94.62,7.12,89.3,9.18,81.16c1.51-6-2.48-14.94,0-20.45,2.69-5.93,11-8.64,14.67-13.9,3.4-4.83,2.18-12.28,6.35-16.46C34.7,25.87,43.54,27.6,48.77,24S55.65,11.44,61.52,8.83c6.41-2.84,14.33,2.51,21.34,1S96,0,103.41,0c8.09,0,11.49,7.56,19,9.31,6.46,1.51,17.16-3,23.09-.36,5.2,2.32,7.08,11.15,11.78,14.26,6.16,4.08,15,2.71,20.09,8,4.89,5,2.6,13.91,6.39,19.82,3.19,5,12.65,6.83,15,12.32,2.6,6.17-2.95,15.59-1.58,22.29S206.82,96.3,206.82,103.41Z"/><path class="cls-2" d="M41.11,92.23h8.45v1.39h-.65a5,5,0,0,0-1.12.07,1,1,0,0,0-.51.33.79.79,0,0,0-.18.51,4.06,4.06,0,0,0,.34,1.3l6.15,16,6.22-16a4,4,0,0,0,.33-1.29.78.78,0,0,0-.33-.7,2.92,2.92,0,0,0-1.37-.22h-.76V92.23h7.19v1.39a3.7,3.7,0,0,0-1.37.17,1.91,1.91,0,0,0-.72.52A7.08,7.08,0,0,0,62,95.83l-7.88,19.56H51.77L44,95.83a9.4,9.4,0,0,0-.53-1.2,2.09,2.09,0,0,0-.53-.57,1.85,1.85,0,0,0-.69-.33,4.47,4.47,0,0,0-1.11-.11Z"/><path class="cls-2" d="M74.5,99a8.45,8.45,0,0,1,4.22,1,7.2,7.2,0,0,1,2.82,3,9.37,9.37,0,0,1,1,4.43,9,9,0,0,1-1.06,4.43,7.25,7.25,0,0,1-2.87,3,8.63,8.63,0,0,1-4.34,1,7.27,7.27,0,0,1-6-2.51,9.69,9.69,0,0,1-1-10.29,7.54,7.54,0,0,1,2.93-3A8.64,8.64,0,0,1,74.5,99Zm-.13,1.61a4.13,4.13,0,0,0-3.21,1.49,7.92,7.92,0,0,0-1.66,5.41,8.3,8.3,0,0,0,1.41,5.22,4.23,4.23,0,0,0,3.47,1.59,4.4,4.4,0,0,0,2.52-.75,5.12,5.12,0,0,0,1.78-2.38,9.83,9.83,0,0,0,.68-3.84,9.71,9.71,0,0,0-.73-3.87,4.48,4.48,0,0,0-4.26-2.87Z"/><path class="cls-2" d="M85,93.81V92.43a10.27,10.27,0,0,0,4.4-1.4H90.6v20.44a4.76,4.76,0,0,0,.17,1.63,1.39,1.39,0,0,0,.63.68A4,4,0,0,0,93,114h.53v1.4H85V114h.87a2.46,2.46,0,0,0,1.22-.24,1.47,1.47,0,0,0,.58-.68,5.7,5.7,0,0,0,.17-1.72V93.81Z"/><path class="cls-2" d="M94.45,99.37l6.29-.25v10.69a5.33,5.33,0,0,0,.39,2.24,2.88,2.88,0,0,0,1.2,1.29,3.79,3.79,0,0,0,1.88.45,7.81,7.81,0,0,0,3-.71,13.33,13.33,0,0,0,3.36-2.13v-7.73a4.52,4.52,0,0,0-.18-1.61,1.4,1.4,0,0,0-.65-.62,3.54,3.54,0,0,0-1.46-.23h-1.21V99.37l6.29-.25V111.5a4.45,4.45,0,0,0,.2,1.65,1.22,1.22,0,0,0,.59.65,4.11,4.11,0,0,0,1.57.19h.51v1.4l-5.51.28V112.6a17.38,17.38,0,0,1-4,2.5,9,9,0,0,1-3.44.69,6.54,6.54,0,0,1-2.24-.35,4.73,4.73,0,0,1-1.68-1,4.65,4.65,0,0,1-1.11-1.68,5.79,5.79,0,0,1-.38-2.09v-7.55a3.87,3.87,0,0,0-.18-1.42,1.37,1.37,0,0,0-.61-.65,2.32,2.32,0,0,0-1.15-.24H94.45Z"/><path class="cls-2" d="M118.43,101.77v-1.41a10.45,10.45,0,0,0,2.18-.41,10.72,10.72,0,0,0,2.13-1H124v2.79a17.51,17.51,0,0,1,3-2A7.17,7.17,0,0,1,130,99a5.48,5.48,0,0,1,2,.37,5.07,5.07,0,0,1,1.56.92,4.62,4.62,0,0,1,1,1.5,12.24,12.24,0,0,1,3.23-2.17,7.8,7.8,0,0,1,3-.62,5.34,5.34,0,0,1,2.58.6,4,4,0,0,1,1.63,1.52,5.61,5.61,0,0,1,.51,2.68v7.7a9,9,0,0,0,.05,1.41,1.33,1.33,0,0,0,.35.6,1.54,1.54,0,0,0,.62.4,5.13,5.13,0,0,0,1.29.11h.53v1.4h-8.32V114a6,6,0,0,0,1.85-.2,1.29,1.29,0,0,0,.63-.63,4.47,4.47,0,0,0,.21-1.69v-7.32a5.25,5.25,0,0,0-.25-1.93,2.12,2.12,0,0,0-.89-.89A3.34,3.34,0,0,0,140,101a5.66,5.66,0,0,0-2.48.63,9.37,9.37,0,0,0-2.73,1.94v7.92a6.56,6.56,0,0,0,.11,1.5,1.31,1.31,0,0,0,.36.6,1.48,1.48,0,0,0,.6.33,8.83,8.83,0,0,0,1.65.09v1.4h-8.16V114h.46a3,3,0,0,0,1.39-.23,1.59,1.59,0,0,0,.64-.71,4.85,4.85,0,0,0,.16-1.58V104.4a6.08,6.08,0,0,0-.24-2.11,2,2,0,0,0-.92-.93,3.18,3.18,0,0,0-1.6-.38,4.89,4.89,0,0,0-2.18.53,12,12,0,0,0-3,2v8.53a2.4,2.4,0,0,0,.2,1.12,1.51,1.51,0,0,0,.66.58,3,3,0,0,0,1.23.21h.61v1.4h-8.33V114h.44a4.08,4.08,0,0,0,1.51-.18,1.52,1.52,0,0,0,.76-.8,5.48,5.48,0,0,0,.13-1.54v-9.7Z"/><path class="cls-2" d="M164.64,111.1l1.07.87a14.66,14.66,0,0,1-2.35,2.29,8.21,8.21,0,0,1-2.15,1.19,7.72,7.72,0,0,1-2.38.34,8.17,8.17,0,0,1-4.15-1,8,8,0,0,1-3-3,8.65,8.65,0,0,1-1.05-4.35,9.3,9.3,0,0,1,1-4.48,7.48,7.48,0,0,1,2.84-2.93,8.15,8.15,0,0,1,4.2-1.07,7.86,7.86,0,0,1,3.09.55A5.66,5.66,0,0,1,164,101.2a7,7,0,0,1,1.32,2.55,9.05,9.05,0,0,1,.27,2.19H153.85c0,.54,0,1,0,1.22a9.19,9.19,0,0,0,.73,3.73,5.37,5.37,0,0,0,1.94,2.41,4.9,4.9,0,0,0,2.73.78,5.63,5.63,0,0,0,2.51-.61A12,12,0,0,0,164.64,111.1Zm-2.12-6.7a6.32,6.32,0,0,0-.71-2.26,3.17,3.17,0,0,0-1.29-1.16,4,4,0,0,0-1.89-.43,4.45,4.45,0,0,0-1.95.43,4.16,4.16,0,0,0-1.52,1.19,6.72,6.72,0,0,0-1.06,2.23Z"/></g></g></svg>